<svg xmlns="http://www.w3.org/2000/svg" viewBox="0 0 375 247.25"><defs><style>.cls-1{fill:#efe8e1;}.cls-2{fill:#ed9654;}.cls-3{fill:#5264ef;}</style></defs><title>Asset 4</title><g id="Layer_2" data-name="Layer 2"><g id="Layer_1-2" data-name="Layer 1"><path class="cls-1" d="M375,244.25H0v-194c42.55-31.14,79.82-42.37,105-47,44.4-8.18,72.25.28,177,12,40,4.47,72.6,7.33,93,9Z"/><path class="cls-2" d="M375,200.25H0v-87c18.62,6.87,49.51,15.51,86,11,76.55-9.46,102.79-67.52,170-76,25.6-3.23,65.51-.33,119,36Z"/><path class="cls-3" d="M375,247.25H0v-88a486.73,486.73,0,0,0,102-1c80-9.25,112-33.34,174-29,23.12,1.61,57.6,7.69,99,30Z"/></g></g></svg>