<svg xmlns="http://www.w3.org/2000/svg" xmlns:xlink="http://www.w3.org/1999/xlink" viewBox="0 0 176.66 104.64"><defs><style>
.cls-1 {
fill: none;
}

.cls-2 {
font-size:93.14px;
font-family: clarendon-urw-extra-wide, Clarendon URW Extra Wide; 
font-style:oblique;
font-weight: 800;
}

.cls-2,.cls-6 { 
fill:#efe8e1;
}

.cls-3 { 
isolation: isolate;
}

.cls-4 {
clip-path: url(#clip-path);
}

.cls-5 {
fill:#262626;
}

.cls-6 {
font-size: 9.16px;
font-family: BaskervilleDisplayPT-Regular, Baskerville Display PT;
}

.cls-7 {
letter-spacing: -0.04em;
}

.cls-8 {
letter-spacing: -0.02em;
}

.cls-9 {
letter-spacing: 0em;
}

.cls-10 {
letter-spacing: -0.05em;
}

.cls-11 {
letter-spacing: -0.02em;
}

.cls-12 {
letter-spacing: 0em;
}

</style><clipPath id="clip-path"><polygon class="cls-1" points="129 91.62 129.04 70.22 176.69 63.52 176.65 84.92 129 91.62"/></clipPath></defs><title>Asset 1</title><g id="Layer_2" data-name="Layer 2"><g id="Layer_1-2" data-name="Layer 1"><text class="cls-2" transform="translate(2.14 77.63)">yyz</text><g class="cls-3"><g class="cls-3"><g class="cls-4"><path class="cls-5" d="M135.61,69.3c-2.11.29-4,2.89-4.49,6.83-.24,2-.73,4.76-1.05,6.67A46.88,46.88,0,0,0,129,89.41c0,1.49.55,2.13,2.1,1.91s3.61-2,5.1-3.87a6,6,0,0,1-.1-1.17,12.36,12.36,0,0,1,.19-2.11c-1.16,1.8-2.31,3-3,3.13-.24,0-.37-.06-.37-.37,0-.71,1.26-5.89,2-8.77,2-4.34,2.54-5.82,2.54-7.08,0-1.46-.71-1.94-1.85-1.78"/><path class="cls-5" d="M140.84,86.37c-.48.06-1-.27-1-1.68,0-2.36,1.37-5.33,3-6.39a10,10,0,0,0-.59,3.41,10.29,10.29,0,0,0,.29,2.46c-.48,1.35-1.12,2.11-1.76,2.2m1-10.08c-2.4.34-4.89,3.89-5.58,7.88a12.36,12.36,0,0,0-.19,2.11,6,6,0,0,0,.1,1.17c.36,2,1.67,2.81,3.27,2.58,1.87-.26,3.28-1.55,4.56-3.6a1.55,1.55,0,0,0,1.06.14,3.93,3.93,0,0,0,2-1,9.44,9.44,0,0,1-.1-1.47,8.51,8.51,0,0,1,.1-1.33,2.34,2.34,0,0,1-1.41.94.64.64,0,0,1-.52-.12,12.63,12.63,0,0,0,.83-4.2c0-1.29-.53-2.77-1.62-2.61a1.26,1.26,0,0,0-.93.53c0-1-.88-1.14-1.57-1"/><path class="cls-5" d="M153.13,74.48c-2.56.36-5.48,4.3-6,8.31a8.51,8.51,0,0,0-.1,1.33,9.44,9.44,0,0,0,.1,1.47c.32,2.13,1.46,3.17,3.62,2.87,1.77-.25,3.85-2,5.36-3.8a7,7,0,0,1-.09-1.17,10.71,10.71,0,0,1,.26-2.16c-1.32,1.89-2.91,3.2-4.12,3.37-1,.14-1.43-.43-1.43-2,0-2.89.94-4.86,1.44-4.94.16,0,.35.15.35.56a9.06,9.06,0,0,1-.27,1.85,1.07,1.07,0,0,0,1.14.38c1.28-.18,2.48-1.81,2.49-3.65s-.9-2.66-2.71-2.4"/><path class="cls-5" d="M160.59,82.79c-.38,0-.7,0-.69-1.08a8.58,8.58,0,0,1,2.62-5.88l-.87,6.09a1.77,1.77,0,0,1-1.06.87m3.08-11a1.37,1.37,0,0,0-.94.5l-.08,1.68c-.13-.13-.32-.15-.69-.1-2.22.31-4.9,3.83-5.72,7.49a10.71,10.71,0,0,0-.26,2.16,7,7,0,0,0,.09,1.17c.29,1.8,1.28,2.6,2.54,2.43.93-.14,2.16-1,3-3.76a10.27,10.27,0,0,0-.08,1.13c0,1.84.74,2.25,1.91,2.08s2.75-1.69,4.15-3.39a37.33,37.33,0,0,1,.63-3.81c-1.43,2.18-2.57,3.19-3,3.26-.21,0-.32,0-.32-.62a37.82,37.82,0,0,1,1.29-6.35,9,9,0,0,0,.29-1.94,2.2,2.2,0,0,0-2.78-1.93"/><path class="cls-5" d="M174.17,63.88c-2.11.29-4,2.89-4.48,6.83-.25,2-.73,4.76-1.06,6.67-.07.43-.23,1.14-.4,2a37.33,37.33,0,0,0-.63,3.81,8.39,8.39,0,0,0,0,.84c0,1.49.55,2.13,2.1,1.91,2.68-.37,7-5.49,7-7.67a.85.85,0,0,0-1-.84c-1.39,2.53-3,4.38-3.79,4.5-.24,0-.37-.06-.37-.38,0-.71,1.26-5.89,2-8.77,2-4.34,2.53-5.82,2.53-7.08,0-1.46-.72-1.94-1.85-1.78"/></g></g></g><text class="cls-6" transform="translate(2.1 21.64)">FIND <tspan class="cls-7" x="23.32" y="0">Y</tspan><tspan x="28.8" y="0">OUR NEI</tspan><tspan class="cls-8" x="66.03" y="0">G</tspan><tspan class="cls-9" x="72.74" y="0">HBOURHOOD M</tspan><tspan class="cls-10" x="143.22" y="0">A</tspan><tspan class="cls-11" x="148.76" y="0">T</tspan><tspan class="cls-12" x="154.23" y="0">CH</tspan></text></g></g></svg>