<svg xmlns="http://www.w3.org/2000/svg" viewBox="0 0 38.65 14.5"><defs><style>.cls-1{isolation:isolate;}.cls-2{fill:#5264ef;}</style></defs><title>Asset 6</title><g id="Layer_2" data-name="Layer 2"><g id="Layer_1-2" data-name="Layer 1"><g class="cls-1"><path class="cls-2" d="M9,0h5.07V1.85A1.42,1.42,0,0,0,12.48,3L9.3,10.8a8.11,8.11,0,0,1-2,2.59A5,5,0,0,1,4,14.5c-2.4,0-4-1.11-4-2.78a2.1,2.1,0,0,1,2.31-2c1.17,0,2,.63,2,1.55s-.45,1.23-1.49,1.48a1.11,1.11,0,0,0,.85.36c1,0,1.72-.61,2.53-2L2.5,3.46C1.8,2,1.66,1.89.89,1.85H.47V0H7.75V1.85c-.92.06-1,.1-1,.4a1.17,1.17,0,0,0,.19.53L8.77,6.26,10.19,2.8a1.8,1.8,0,0,0,.1-.47C10.29,2,10,1.89,9,1.85Z"/><path class="cls-2" d="M22.48,0h5.07V1.85c-1,0-1.32.27-1.61,1.12L22.75,10.8a8.22,8.22,0,0,1-2,2.59,5,5,0,0,1-3.35,1.11c-2.4,0-4-1.11-4-2.78a2.1,2.1,0,0,1,2.31-2c1.17,0,2,.63,2,1.55s-.45,1.23-1.49,1.48a1.11,1.11,0,0,0,.85.36c1,0,1.72-.61,2.53-2L16,3.46c-.7-1.44-.85-1.57-1.61-1.61h-.43V0H21.2V1.85c-.91.06-1,.1-1,.4a1.17,1.17,0,0,0,.19.53l1.84,3.48L23.64,2.8a1.53,1.53,0,0,0,.11-.47c0-.33-.28-.44-1.27-.48Z"/><path class="cls-2" d="M27.74,7.92l5.9-6.07H32.11c-1.57.08-1.74.29-1.89,2.16H28.14V0H38.65V2L32.9,8.11h1.55c1.82-.09,2.1-.43,2.12-2.53h2.08V10H27.74Z"/></g></g></g></svg>